<svg version="1.1" id="Layer_1" xmlns="http://www.w3.org/2000/svg" xmlns:xlink="http://www.w3.org/1999/xlink" x="0px" y="0px"
	 width="100%" viewBox="0 0 430 427" enable-background="new 0 0 430 427" xml:space="preserve">
<path fill="#BCBDBD" opacity="1.000000" stroke="none" 
	d="
M60.973953,15.015011 
	C95.656883,15.075411 130.339813,15.135811 165.545700,15.500425 
	C166.717819,15.849514 167.366959,15.894387 168.016113,15.939259 
	C169.424225,16.331450 170.832352,16.723642 172.764709,17.324013 
	C173.493668,17.776541 173.753677,17.922091 174.068985,17.968836 
	C176.010590,20.076160 177.952179,22.183489 179.952087,24.987583 
	C180.298843,26.830223 180.587280,27.976097 180.638565,29.443167 
	C180.267807,31.245262 180.017410,32.726147 180.017197,34.207062 
	C180.000366,154.995590 179.999588,275.784119 180.037460,396.572632 
	C180.038025,398.347565 180.537613,400.122406 181.031464,402.043274 
	C181.423843,402.260681 181.589066,402.332123 181.754303,402.403595 
	C179.487808,409.867859 174.266617,413.763275 166.154205,414.386536 
	C163.856186,413.615021 162.124664,413.040985 160.392441,413.038757 
	C119.018852,412.985901 77.645172,412.983490 36.271580,413.029297 
	C34.510540,413.031250 32.750107,413.583405 30.933155,414.075317 
	C30.876917,414.271393 30.887133,414.679199 30.887133,414.679199 
	C22.209240,414.287384 14.845234,406.350342 15.658092,397.196167 
	C16.399628,395.029053 16.965548,393.457214 16.966059,391.885193 
	C17.004519,273.344543 17.002419,154.803864 16.956738,36.263226 
	C16.956060,34.506245 16.369997,32.749493 15.779826,30.967075 
	C15.317769,30.959820 15.133019,30.978123 14.948270,30.996424 
	C14.831668,22.999973 23.927496,14.632693 32.163284,15.009206 
	C41.121971,15.418766 50.112965,15.121476 59.794304,15.105024 
	C60.498737,15.077680 60.973953,15.015010 60.973953,15.015011 
z"/>
<path fill="#BCBCBD" opacity="1.000000" stroke="none" 
	d="
M239.018295,93.076912 
	C239.171860,82.693108 246.559235,74.176521 261.580566,75.058640 
	C262.007843,75.004501 262.052551,74.991302 262.004608,75.266151 
	C261.974762,75.726112 261.992889,75.911232 262.272156,76.310013 
	C263.995697,76.383751 265.458008,76.243813 267.392761,76.067741 
	C276.586914,76.047005 285.308624,76.062401 294.234070,76.278793 
	C295.286743,76.105240 296.135742,75.730675 296.984711,75.356117 
	C305.722290,76.588394 314.578796,77.280396 323.171478,79.171097 
	C338.658356,82.578766 352.631500,89.962013 365.224670,99.206024 
	C389.782684,117.232773 408.169952,140.120956 415.593567,170.387390 
	C417.122162,176.619431 417.757629,183.218185 417.773987,189.650528 
	C417.928314,250.280334 417.857849,310.910736 417.855316,371.540955 
	C417.854950,381.036926 417.786194,390.533936 417.908386,400.028442 
	C417.985504,406.020996 414.794037,410.114838 410.056122,412.767822 
	C405.273743,415.445740 400.141632,413.577087 396.383759,410.605194 
	C390.288422,405.784729 385.006287,399.946503 379.276672,394.650665 
	C371.083771,387.078003 362.831512,379.568512 354.537445,372.106689 
	C349.387421,367.473419 343.858917,363.234131 338.953400,358.361786 
	C331.322235,350.782196 320.117737,353.208282 312.847443,361.456635 
	C307.784973,367.200165 301.466705,371.837402 295.704742,376.963623 
	C291.740784,380.490234 287.677582,383.911194 283.819885,387.550201 
	C276.482849,394.471283 269.220276,401.472717 262.005463,408.521393 
	C256.781433,413.625061 252.465668,414.987396 246.919724,412.235626 
	C241.536636,409.564667 238.696121,405.041077 239.123718,398.153931 
	C239.102600,397.503571 239.026108,397.043701 239.026108,397.043701 
	C239.069611,396.563232 239.113113,396.082794 239.047211,395.062866 
	C238.937805,394.523407 238.946274,394.148834 239.239746,393.832153 
	C239.673355,391.542480 239.931625,389.569733 239.935867,387.596436 
	C239.997208,359.048248 240.024460,330.499969 240.296295,301.657532 
	C240.375122,298.924988 240.217545,296.486664 240.030487,293.699646 
	C240.022507,292.885376 240.044037,292.419739 240.271362,291.756287 
	C240.342789,290.722687 240.208450,289.886963 240.037628,288.608063 
	C240.027924,286.091217 240.054703,284.017487 240.284973,281.745178 
	C240.347443,280.713013 240.206406,279.879517 240.027283,278.575745 
	C240.019302,247.385422 240.049423,216.665344 240.283081,185.748383 
	C240.353409,184.720825 240.220184,183.890121 240.047668,182.588455 
	C239.988068,154.627777 239.987106,127.138008 239.905594,99.648483 
	C239.899933,97.739319 239.295639,95.831924 238.961914,93.710861 
	C238.954132,93.498016 239.018295,93.076912 239.018295,93.076912 
z"/>
<path fill="#9FA0A2" opacity="1.000000" stroke="none" 
	d="
M180.875702,29.121969 
	C180.587280,27.976097 180.298843,26.830223 180.012314,25.327597 
	C181.004471,27.539133 182.858063,30.106434 182.861008,32.675854 
	C182.997589,151.814056 182.978485,270.952423 182.942459,390.090790 
	C182.941269,394.035156 182.579941,397.979431 182.070389,402.163666 
	C181.589066,402.332123 181.423843,402.260681 181.085220,401.588196 
	C180.957977,397.489349 181.044144,393.991516 181.044418,390.493713 
	C181.051315,304.190033 181.065002,217.886353 181.040695,131.582672 
	C181.031067,97.429100 180.933319,63.275536 180.875702,29.121969 
z"/>
<path fill="#CCCDCD" opacity="1.000000" stroke="none" 
	d="
M16.057133,30.992634 
	C16.369997,32.749493 16.956060,34.506245 16.956738,36.263226 
	C17.002419,154.803864 17.004519,273.344543 16.966059,391.885193 
	C16.965548,393.457214 16.399628,395.029053 15.771830,396.784210 
	C15.369576,396.490204 15.293103,396.013000 15.117105,395.108398 
	C15.017581,394.681061 14.954289,394.545593 15.257345,394.204620 
	C15.699755,391.713043 15.959082,389.562500 15.960732,387.411804 
	C15.993234,345.087708 15.995183,302.763641 16.004627,260.439545 
	C16.021690,183.957245 16.039585,107.474937 16.057133,30.992634 
z"/>
<path fill="#8A8D8B" opacity="1.000000" stroke="none" 
	d="
M15.779826,30.967075 
	C16.039585,107.474937 16.021690,183.957245 16.004627,260.439545 
	C15.995183,302.763641 15.993234,345.087708 15.960732,387.411804 
	C15.959082,389.562500 15.699755,391.713043 15.269257,393.672058 
	C14.986038,275.257660 14.997360,157.034836 14.965628,38.812027 
	C14.965203,37.232361 14.419553,35.652840 14.128382,34.073254 
	C14.180488,33.138424 14.232594,32.203594 14.616486,31.132593 
	C15.133019,30.978123 15.317769,30.959820 15.779826,30.967075 
z"/>
<path fill="#CDCDCE" opacity="1.000000" stroke="none" 
	d="
M14.069684,34.533993 
	C14.419553,35.652840 14.965203,37.232361 14.965628,38.812027 
	C14.997360,157.034836 14.986038,275.257660 14.966200,394.013031 
	C14.954289,394.545593 15.017581,394.681061 15.033326,394.754150 
	C14.699804,393.382812 14.045257,391.938538 14.044721,390.493958 
	C14.000779,271.994232 14.007745,153.494476 14.069684,34.533993 
z"/>
<path fill="#D3D3D4" opacity="1.000000" stroke="none" 
	d="
M238.605499,93.224823 
	C239.018295,93.076912 238.954132,93.498016 238.974930,94.187141 
	C238.979233,194.633789 238.962753,294.391296 238.946274,394.148834 
	C238.946274,394.148834 238.937805,394.523407 238.981171,394.705688 
	C238.683212,393.597382 238.043655,392.306946 238.043076,391.016235 
	C237.998215,292.628326 238.003189,194.240402 238.012924,95.852463 
	C238.013000,95.025879 238.130188,94.199310 238.605499,93.224823 
z"/>
<path fill="#CFCFCF" opacity="1.000000" stroke="none" 
	d="
M30.989391,413.879272 
	C32.750107,413.583405 34.510540,413.031250 36.271580,413.029297 
	C77.645172,412.983490 119.018852,412.985901 160.392441,413.038757 
	C162.124664,413.040985 163.856186,413.615021 165.775330,414.245728 
	C165.520462,414.637177 165.078308,414.705536 164.070740,414.582764 
	C162.521530,414.267944 161.537766,414.036743 160.553848,414.036041 
	C126.232704,414.011627 91.911552,414.006378 57.590401,414.018341 
	C56.766304,414.018616 55.942291,414.244476 55.118240,414.365143 
	C55.134377,414.580261 55.150513,414.795380 55.166645,415.010498 
	C91.460388,415.010498 127.754128,415.010498 164.047867,415.010498 
	C162.884323,415.338165 161.721222,415.950317 160.557175,415.952118 
	C125.843132,416.005981 91.128990,416.008392 56.414925,415.964478 
	C55.208893,415.962952 54.003567,415.403412 52.075600,414.691254 
	C44.565323,414.145477 37.777355,414.012390 30.989391,413.879272 
z"/>
<path fill="#848484" opacity="1.000000" stroke="none" 
	d="
M30.933155,414.075317 
	C37.777355,414.012390 44.565323,414.145477 51.663269,414.551758 
	C45.219681,414.871460 38.466103,414.918030 31.299829,414.821899 
	C30.887133,414.679199 30.876917,414.271393 30.933155,414.075317 
z"/>
<path fill="#CFCFCF" opacity="1.000000" stroke="none" 
	d="
M262.027344,75.018631 
	C262.671570,74.686722 263.296783,74.038727 263.920868,74.039795 
	C273.836395,74.056839 283.751801,74.157051 293.821472,74.650436 
	C293.975708,75.062637 293.954407,75.010796 293.488831,74.996346 
	C282.699677,74.985031 272.376099,74.988167 262.052551,74.991302 
	C262.052551,74.991302 262.007843,75.004501 262.027344,75.018631 
z"/>
<path fill="#C5C7C6" opacity="1.000000" stroke="none" 
	d="
M296.608978,75.270401 
	C296.135742,75.730675 295.286743,76.105240 294.270020,76.007965 
	C294.052948,75.361015 294.003662,75.185905 293.954407,75.010796 
	C293.954407,75.010796 293.975708,75.062637 293.949280,75.073463 
	C294.692963,75.117752 295.463104,75.151215 296.608978,75.270401 
z"/>
<path fill="#9FA0A2" opacity="1.000000" stroke="none" 
	d="
M167.915680,15.625987 
	C167.366959,15.894387 166.717819,15.849514 166.008560,15.550776 
	C166.570709,15.302178 167.192978,15.307446 167.915680,15.625987 
z"/>
<path fill="#9FA0A2" opacity="1.000000" stroke="none" 
	d="
M174.013306,17.693020 
	C173.753677,17.922091 173.493668,17.776541 173.139389,17.360542 
	C173.312424,17.264996 173.635025,17.341099 174.013306,17.693020 
z"/>
<path fill="#8A8D8B" opacity="1.000000" stroke="none" 
	d="
M238.767487,397.071655 
	C239.026108,397.043701 239.102600,397.503571 239.062683,397.733246 
	C238.851471,397.675171 238.680161,397.387390 238.767487,397.071655 
z"/>
<path fill="#8F8F91" opacity="1.000000" stroke="none" 
	d="
M60.938568,14.755888 
	C60.973953,15.015010 60.498737,15.077680 60.261215,15.045790 
	C60.316853,14.841522 60.610016,14.669145 60.938568,14.755888 
z"/>
<path fill="#C6C8C8" opacity="1.000000" stroke="none" 
	d="
M180.638565,29.443167 
	C180.933319,63.275536 181.031067,97.429100 181.040695,131.582672 
	C181.065002,217.886353 181.051315,304.190033 181.044418,390.493713 
	C181.044144,393.991516 180.957977,397.489349 180.858063,401.442200 
	C180.537613,400.122406 180.038025,398.347565 180.037460,396.572632 
	C179.999588,275.784119 180.000366,154.995590 180.017197,34.207062 
	C180.017410,32.726147 180.267807,31.245262 180.638565,29.443167 
z"/>
<path fill="#8A8D8B" opacity="1.000000" stroke="none" 
	d="
M239.239746,393.832153 
	C238.962753,294.391296 238.979233,194.633789 238.982727,94.399979 
	C239.295639,95.831924 239.899933,97.739319 239.905594,99.648483 
	C239.987106,127.138008 239.988068,154.627777 240.020081,182.948303 
	C240.047699,184.501175 240.063629,185.223221 240.079544,185.945267 
	C240.049423,216.665344 240.019302,247.385422 240.001923,278.937439 
	C240.036926,280.494171 240.059204,281.218994 240.081482,281.943787 
	C240.054703,284.017487 240.027924,286.091217 240.009964,288.970093 
	C240.034378,290.501526 240.049957,291.227844 240.065552,291.954132 
	C240.044037,292.419739 240.022507,292.885376 240.003113,294.136841 
	C240.023453,297.265717 240.041672,299.608704 240.059906,301.951721 
	C240.024460,330.499969 239.997208,359.048248 239.935867,387.596436 
	C239.931625,389.569733 239.673355,391.542480 239.239746,393.832153 
z"/>
<path fill="#8F8F91" opacity="1.000000" stroke="none" 
	d="
M293.488831,74.996346 
	C294.003662,75.185905 294.052948,75.361015 294.066315,75.806961 
	C285.308624,76.062401 276.586914,76.047005 266.986145,76.039284 
	C264.741730,76.063423 263.376373,76.079880 262.010986,76.096344 
	C261.992889,75.911232 261.974762,75.726112 262.004608,75.266151 
	C272.376099,74.988167 282.699677,74.985031 293.488831,74.996346 
z"/>
<path fill="#C5C7C6" opacity="1.000000" stroke="none" 
	d="
M240.296295,301.657532 
	C240.041672,299.608704 240.023453,297.265717 240.032608,294.485504 
	C240.217545,296.486664 240.375122,298.924988 240.296295,301.657532 
z"/>
<path fill="#C5C7C6" opacity="1.000000" stroke="none" 
	d="
M262.272156,76.310013 
	C263.376373,76.079880 264.741730,76.063423 266.513733,76.075417 
	C265.458008,76.243813 263.995697,76.383751 262.272156,76.310013 
z"/>
<path fill="#C5C7C6" opacity="1.000000" stroke="none" 
	d="
M240.283112,185.748383 
	C240.063629,185.223221 240.047699,184.501175 240.059372,183.419281 
	C240.220184,183.890121 240.353409,184.720825 240.283112,185.748383 
z"/>
<path fill="#C5C7C6" opacity="1.000000" stroke="none" 
	d="
M240.284973,281.745178 
	C240.059204,281.218994 240.036926,280.494171 240.040009,279.407684 
	C240.206406,279.879517 240.347443,280.713013 240.284973,281.745178 
z"/>
<path fill="#C5C7C6" opacity="1.000000" stroke="none" 
	d="
M240.271347,291.756287 
	C240.049957,291.227844 240.034378,290.501526 240.046448,289.413208 
	C240.208450,289.886963 240.342789,290.722687 240.271347,291.756287 
z"/>
<path fill="#848484" opacity="1.000000" stroke="none" 
	d="
M164.018890,415.014313 
	C127.754128,415.010498 91.460388,415.010498 55.166645,415.010498 
	C55.150513,414.795380 55.134377,414.580261 55.118240,414.365143 
	C55.942291,414.244476 56.766304,414.018616 57.590401,414.018341 
	C91.911552,414.006378 126.232704,414.011627 160.553848,414.036041 
	C161.537766,414.036743 162.521530,414.267944 163.767029,414.726837 
	C164.028687,415.062012 163.989914,415.018127 164.018890,415.014313 
z"/>
</svg>